<mxfile host="app.diagrams.net" agent="Mozilla/5.0 (Macintosh; Intel Mac OS X 10_15_7) AppleWebKit/537.36 (KHTML, like Gecko) Chrome/137.0.0.0 Safari/537.36" version="27.1.6">
  <diagram name="Page-1" id="RHcWUUviunv-SL23B2lr">
    <mxGraphModel dx="3485" dy="2060" grid="0" gridSize="10" guides="1" tooltips="1" connect="1" arrows="1" fold="1" page="0" pageScale="1" pageWidth="850" pageHeight="1100" math="0" shadow="0">
      <root>
        <mxCell id="0" />
        <mxCell id="1" parent="0" />
        <mxCell id="CfoRzwzxVOL5DCLn1S8z-71" value="" style="rounded=1;whiteSpace=wrap;html=1;strokeWidth=2;fillColor=#eeeeee;strokeColor=#36393d;" vertex="1" parent="1">
          <mxGeometry x="-229" y="51" width="1038" height="1155" as="geometry" />
        </mxCell>
        <mxCell id="CfoRzwzxVOL5DCLn1S8z-65" value="" style="rounded=1;whiteSpace=wrap;html=1;fillColor=#dae8fc;strokeColor=default;strokeWidth=2;" vertex="1" parent="1">
          <mxGeometry x="-188" y="193.5" width="961" height="526" as="geometry" />
        </mxCell>
        <mxCell id="CfoRzwzxVOL5DCLn1S8z-1" value="" style="rounded=1;whiteSpace=wrap;html=1;fillColor=#d5e8d4;strokeColor=#000000;strokeWidth=2;" vertex="1" parent="1">
          <mxGeometry x="-153" y="238" width="120" height="60" as="geometry" />
        </mxCell>
        <mxCell id="CfoRzwzxVOL5DCLn1S8z-2" value="&lt;font style=&quot;font-size: 36px;&quot;&gt;C&lt;/font&gt;" style="text;html=1;align=center;verticalAlign=middle;whiteSpace=wrap;rounded=0;" vertex="1" parent="1">
          <mxGeometry x="-123" y="256" width="60" height="30" as="geometry" />
        </mxCell>
        <mxCell id="CfoRzwzxVOL5DCLn1S8z-3" value="" style="rounded=1;whiteSpace=wrap;html=1;fillColor=#d5e8d4;strokeColor=#000000;strokeWidth=2;" vertex="1" parent="1">
          <mxGeometry x="-12" y="241" width="120" height="60" as="geometry" />
        </mxCell>
        <mxCell id="CfoRzwzxVOL5DCLn1S8z-4" value="&lt;span style=&quot;font-size: 36px;&quot;&gt;T&lt;/span&gt;&lt;sub style=&quot;&quot;&gt;&lt;font style=&quot;font-size: 16px;&quot;&gt;1&lt;/font&gt;&lt;/sub&gt;" style="text;html=1;align=center;verticalAlign=middle;whiteSpace=wrap;rounded=0;" vertex="1" parent="1">
          <mxGeometry x="18" y="259" width="60" height="30" as="geometry" />
        </mxCell>
        <mxCell id="CfoRzwzxVOL5DCLn1S8z-5" value="" style="rounded=1;whiteSpace=wrap;html=1;fillColor=#d5e8d4;strokeColor=#000000;strokeWidth=2;" vertex="1" parent="1">
          <mxGeometry x="168" y="244" width="120" height="60" as="geometry" />
        </mxCell>
        <mxCell id="CfoRzwzxVOL5DCLn1S8z-6" value="&lt;span style=&quot;font-size: 36px;&quot;&gt;T&lt;/span&gt;&lt;span style=&quot;font-size: 16px;&quot;&gt;N&lt;/span&gt;" style="text;html=1;align=center;verticalAlign=middle;whiteSpace=wrap;rounded=0;" vertex="1" parent="1">
          <mxGeometry x="198" y="262" width="60" height="30" as="geometry" />
        </mxCell>
        <mxCell id="CfoRzwzxVOL5DCLn1S8z-7" value="" style="rounded=1;whiteSpace=wrap;html=1;fillColor=#d5e8d4;strokeColor=#000000;strokeWidth=2;" vertex="1" parent="1">
          <mxGeometry x="311" y="244" width="120" height="60" as="geometry" />
        </mxCell>
        <mxCell id="CfoRzwzxVOL5DCLn1S8z-8" value="&lt;span style=&quot;font-size: 36px;&quot;&gt;T&lt;/span&gt;&lt;span style=&quot;font-size: 16px;&quot;&gt;[SEP]&lt;/span&gt;" style="text;html=1;align=center;verticalAlign=middle;whiteSpace=wrap;rounded=0;" vertex="1" parent="1">
          <mxGeometry x="341" y="262" width="60" height="30" as="geometry" />
        </mxCell>
        <mxCell id="CfoRzwzxVOL5DCLn1S8z-9" value="" style="rounded=1;whiteSpace=wrap;html=1;fillColor=#d5e8d4;strokeColor=#000000;strokeWidth=2;" vertex="1" parent="1">
          <mxGeometry x="450" y="244" width="120" height="60" as="geometry" />
        </mxCell>
        <mxCell id="CfoRzwzxVOL5DCLn1S8z-10" value="&lt;span style=&quot;font-size: 36px;&quot;&gt;T&lt;/span&gt;&lt;sub style=&quot;&quot;&gt;&lt;font style=&quot;font-size: 16px;&quot;&gt;1&#39;&lt;/font&gt;&lt;/sub&gt;" style="text;html=1;align=center;verticalAlign=middle;whiteSpace=wrap;rounded=0;" vertex="1" parent="1">
          <mxGeometry x="480" y="262" width="60" height="30" as="geometry" />
        </mxCell>
        <mxCell id="CfoRzwzxVOL5DCLn1S8z-13" value="" style="rounded=1;whiteSpace=wrap;html=1;fillColor=#d5e8d4;strokeColor=#000000;strokeWidth=2;" vertex="1" parent="1">
          <mxGeometry x="630" y="244" width="120" height="60" as="geometry" />
        </mxCell>
        <mxCell id="CfoRzwzxVOL5DCLn1S8z-14" value="&lt;span style=&quot;font-size: 36px;&quot;&gt;T&lt;/span&gt;&lt;span style=&quot;font-size: 16px;&quot;&gt;M&#39;&lt;/span&gt;" style="text;html=1;align=center;verticalAlign=middle;whiteSpace=wrap;rounded=0;" vertex="1" parent="1">
          <mxGeometry x="660" y="262" width="60" height="30" as="geometry" />
        </mxCell>
        <mxCell id="CfoRzwzxVOL5DCLn1S8z-15" value="&lt;font style=&quot;font-size: 24px;&quot;&gt;......&lt;/font&gt;" style="text;html=1;align=center;verticalAlign=middle;whiteSpace=wrap;rounded=0;" vertex="1" parent="1">
          <mxGeometry x="108" y="259" width="60" height="30" as="geometry" />
        </mxCell>
        <mxCell id="CfoRzwzxVOL5DCLn1S8z-17" value="&lt;font style=&quot;font-size: 24px;&quot;&gt;......&lt;/font&gt;" style="text;html=1;align=center;verticalAlign=middle;whiteSpace=wrap;rounded=0;" vertex="1" parent="1">
          <mxGeometry x="570" y="259" width="60" height="30" as="geometry" />
        </mxCell>
        <mxCell id="CfoRzwzxVOL5DCLn1S8z-18" value="" style="rounded=1;whiteSpace=wrap;html=1;fillColor=#d5e8d4;strokeColor=#000000;strokeWidth=2;" vertex="1" parent="1">
          <mxGeometry x="-153" y="607" width="120" height="60" as="geometry" />
        </mxCell>
        <mxCell id="CfoRzwzxVOL5DCLn1S8z-19" value="&lt;span style=&quot;font-size: 36px;&quot;&gt;E&lt;/span&gt;&lt;font style=&quot;font-size: 16px;&quot;&gt;[CLS]&lt;/font&gt;" style="text;html=1;align=center;verticalAlign=middle;whiteSpace=wrap;rounded=0;" vertex="1" parent="1">
          <mxGeometry x="-123" y="625" width="60" height="30" as="geometry" />
        </mxCell>
        <mxCell id="CfoRzwzxVOL5DCLn1S8z-20" value="" style="rounded=1;whiteSpace=wrap;html=1;fillColor=#d5e8d4;strokeColor=#000000;strokeWidth=2;" vertex="1" parent="1">
          <mxGeometry x="-12" y="610" width="120" height="60" as="geometry" />
        </mxCell>
        <mxCell id="CfoRzwzxVOL5DCLn1S8z-21" value="&lt;sub style=&quot;&quot;&gt;&lt;font style=&quot;font-size: 36px;&quot;&gt;E&lt;/font&gt;&lt;font style=&quot;font-size: 16px;&quot;&gt;1&lt;/font&gt;&lt;/sub&gt;" style="text;html=1;align=center;verticalAlign=middle;whiteSpace=wrap;rounded=0;" vertex="1" parent="1">
          <mxGeometry x="18" y="628" width="60" height="30" as="geometry" />
        </mxCell>
        <mxCell id="CfoRzwzxVOL5DCLn1S8z-22" value="" style="rounded=1;whiteSpace=wrap;html=1;fillColor=#d5e8d4;strokeColor=#000000;strokeWidth=2;" vertex="1" parent="1">
          <mxGeometry x="168" y="613" width="120" height="60" as="geometry" />
        </mxCell>
        <mxCell id="CfoRzwzxVOL5DCLn1S8z-23" value="&lt;span style=&quot;font-size: 36px;&quot;&gt;E&lt;/span&gt;&lt;span style=&quot;font-size: 16px;&quot;&gt;N&lt;/span&gt;" style="text;html=1;align=center;verticalAlign=middle;whiteSpace=wrap;rounded=0;" vertex="1" parent="1">
          <mxGeometry x="198" y="631" width="60" height="30" as="geometry" />
        </mxCell>
        <mxCell id="CfoRzwzxVOL5DCLn1S8z-24" value="" style="rounded=1;whiteSpace=wrap;html=1;fillColor=#d5e8d4;strokeColor=#000000;strokeWidth=2;" vertex="1" parent="1">
          <mxGeometry x="311" y="613" width="120" height="60" as="geometry" />
        </mxCell>
        <mxCell id="CfoRzwzxVOL5DCLn1S8z-25" value="&lt;span style=&quot;font-size: 36px;&quot;&gt;E&lt;/span&gt;&lt;span style=&quot;font-size: 16px;&quot;&gt;[SEP]&lt;/span&gt;" style="text;html=1;align=center;verticalAlign=middle;whiteSpace=wrap;rounded=0;" vertex="1" parent="1">
          <mxGeometry x="341" y="631" width="60" height="30" as="geometry" />
        </mxCell>
        <mxCell id="CfoRzwzxVOL5DCLn1S8z-26" value="" style="rounded=1;whiteSpace=wrap;html=1;fillColor=#d5e8d4;strokeColor=#000000;strokeWidth=2;" vertex="1" parent="1">
          <mxGeometry x="450" y="613" width="120" height="60" as="geometry" />
        </mxCell>
        <mxCell id="CfoRzwzxVOL5DCLn1S8z-27" value="&lt;sub style=&quot;&quot;&gt;&lt;font style=&quot;font-size: 36px;&quot;&gt;E&lt;/font&gt;&lt;font style=&quot;font-size: 16px;&quot;&gt;1&#39;&lt;/font&gt;&lt;/sub&gt;" style="text;html=1;align=center;verticalAlign=middle;whiteSpace=wrap;rounded=0;" vertex="1" parent="1">
          <mxGeometry x="480" y="631" width="60" height="30" as="geometry" />
        </mxCell>
        <mxCell id="CfoRzwzxVOL5DCLn1S8z-28" value="" style="rounded=1;whiteSpace=wrap;html=1;fillColor=#d5e8d4;strokeColor=#000000;strokeWidth=2;" vertex="1" parent="1">
          <mxGeometry x="630" y="613" width="120" height="60" as="geometry" />
        </mxCell>
        <mxCell id="CfoRzwzxVOL5DCLn1S8z-29" value="&lt;span style=&quot;font-size: 36px;&quot;&gt;E&lt;/span&gt;&lt;span style=&quot;font-size: 16px;&quot;&gt;M&#39;&lt;/span&gt;" style="text;html=1;align=center;verticalAlign=middle;whiteSpace=wrap;rounded=0;" vertex="1" parent="1">
          <mxGeometry x="660" y="631" width="60" height="30" as="geometry" />
        </mxCell>
        <mxCell id="CfoRzwzxVOL5DCLn1S8z-30" value="&lt;font style=&quot;font-size: 24px;&quot;&gt;......&lt;/font&gt;" style="text;html=1;align=center;verticalAlign=middle;whiteSpace=wrap;rounded=0;" vertex="1" parent="1">
          <mxGeometry x="108" y="628" width="60" height="30" as="geometry" />
        </mxCell>
        <mxCell id="CfoRzwzxVOL5DCLn1S8z-31" value="&lt;font style=&quot;font-size: 24px;&quot;&gt;......&lt;/font&gt;" style="text;html=1;align=center;verticalAlign=middle;whiteSpace=wrap;rounded=0;" vertex="1" parent="1">
          <mxGeometry x="570" y="628" width="60" height="30" as="geometry" />
        </mxCell>
        <mxCell id="CfoRzwzxVOL5DCLn1S8z-38" value="" style="shape=loopLimit;whiteSpace=wrap;html=1;strokeWidth=2;fillColor=#f8cecc;strokeColor=#b85450;" vertex="1" parent="1">
          <mxGeometry x="-143" y="765" width="100" height="80" as="geometry" />
        </mxCell>
        <mxCell id="CfoRzwzxVOL5DCLn1S8z-39" value="&lt;font style=&quot;font-size: 24px;&quot;&gt;[CLS]&lt;/font&gt;" style="text;html=1;align=center;verticalAlign=middle;whiteSpace=wrap;rounded=0;" vertex="1" parent="1">
          <mxGeometry x="-121.5" y="795" width="60" height="30" as="geometry" />
        </mxCell>
        <mxCell id="CfoRzwzxVOL5DCLn1S8z-76" style="edgeStyle=orthogonalEdgeStyle;rounded=0;orthogonalLoop=1;jettySize=auto;html=1;exitX=0.5;exitY=1;exitDx=0;exitDy=0;entryX=0.5;entryY=1;entryDx=0;entryDy=0;strokeWidth=2;endArrow=none;startFill=0;" edge="1" parent="1" source="CfoRzwzxVOL5DCLn1S8z-40" target="CfoRzwzxVOL5DCLn1S8z-42">
          <mxGeometry relative="1" as="geometry">
            <Array as="points">
              <mxPoint x="48" y="897" />
              <mxPoint x="224" y="897" />
            </Array>
          </mxGeometry>
        </mxCell>
        <mxCell id="CfoRzwzxVOL5DCLn1S8z-40" value="" style="shape=loopLimit;whiteSpace=wrap;html=1;strokeWidth=2;fillColor=#f8cecc;strokeColor=#b85450;" vertex="1" parent="1">
          <mxGeometry x="-2" y="765" width="100" height="80" as="geometry" />
        </mxCell>
        <mxCell id="CfoRzwzxVOL5DCLn1S8z-41" value="&lt;span style=&quot;font-size: 24px;&quot;&gt;Tok 1&lt;/span&gt;" style="text;html=1;align=center;verticalAlign=middle;whiteSpace=wrap;rounded=0;" vertex="1" parent="1">
          <mxGeometry x="19.5" y="795" width="60" height="30" as="geometry" />
        </mxCell>
        <mxCell id="CfoRzwzxVOL5DCLn1S8z-42" value="" style="shape=loopLimit;whiteSpace=wrap;html=1;strokeWidth=2;fillColor=#f8cecc;strokeColor=#b85450;" vertex="1" parent="1">
          <mxGeometry x="174" y="765" width="100" height="80" as="geometry" />
        </mxCell>
        <mxCell id="CfoRzwzxVOL5DCLn1S8z-43" value="&lt;span style=&quot;font-size: 24px;&quot;&gt;Tok N&lt;/span&gt;" style="text;html=1;align=center;verticalAlign=middle;whiteSpace=wrap;rounded=0;" vertex="1" parent="1">
          <mxGeometry x="188.25" y="795" width="71.5" height="30" as="geometry" />
        </mxCell>
        <mxCell id="CfoRzwzxVOL5DCLn1S8z-44" value="" style="shape=loopLimit;whiteSpace=wrap;html=1;strokeWidth=2;fillColor=#f8cecc;strokeColor=#b85450;" vertex="1" parent="1">
          <mxGeometry x="321" y="765" width="100" height="80" as="geometry" />
        </mxCell>
        <mxCell id="CfoRzwzxVOL5DCLn1S8z-45" value="&lt;span style=&quot;font-size: 24px;&quot;&gt;[SEP]&lt;/span&gt;" style="text;html=1;align=center;verticalAlign=middle;whiteSpace=wrap;rounded=0;" vertex="1" parent="1">
          <mxGeometry x="335.25" y="795" width="71.5" height="30" as="geometry" />
        </mxCell>
        <mxCell id="CfoRzwzxVOL5DCLn1S8z-46" value="" style="shape=loopLimit;whiteSpace=wrap;html=1;strokeWidth=2;fillColor=#f8cecc;strokeColor=#b85450;" vertex="1" parent="1">
          <mxGeometry x="460" y="765" width="100" height="80" as="geometry" />
        </mxCell>
        <mxCell id="CfoRzwzxVOL5DCLn1S8z-47" value="&lt;span style=&quot;font-size: 24px;&quot;&gt;Tok 1&lt;/span&gt;" style="text;html=1;align=center;verticalAlign=middle;whiteSpace=wrap;rounded=0;" vertex="1" parent="1">
          <mxGeometry x="474.25" y="795" width="71.5" height="30" as="geometry" />
        </mxCell>
        <mxCell id="CfoRzwzxVOL5DCLn1S8z-48" value="" style="shape=loopLimit;whiteSpace=wrap;html=1;strokeWidth=2;fillColor=#f8cecc;strokeColor=#b85450;" vertex="1" parent="1">
          <mxGeometry x="630" y="765" width="100" height="80" as="geometry" />
        </mxCell>
        <mxCell id="CfoRzwzxVOL5DCLn1S8z-49" value="&lt;span style=&quot;font-size: 24px;&quot;&gt;Tok M&lt;/span&gt;" style="text;html=1;align=center;verticalAlign=middle;whiteSpace=wrap;rounded=0;" vertex="1" parent="1">
          <mxGeometry x="644.25" y="795" width="71.5" height="30" as="geometry" />
        </mxCell>
        <mxCell id="CfoRzwzxVOL5DCLn1S8z-50" value="&lt;font style=&quot;font-size: 24px;&quot;&gt;......&lt;/font&gt;" style="text;html=1;align=center;verticalAlign=middle;whiteSpace=wrap;rounded=0;" vertex="1" parent="1">
          <mxGeometry x="103" y="795" width="60" height="30" as="geometry" />
        </mxCell>
        <mxCell id="CfoRzwzxVOL5DCLn1S8z-51" value="&lt;font style=&quot;font-size: 24px;&quot;&gt;......&lt;/font&gt;" style="text;html=1;align=center;verticalAlign=middle;whiteSpace=wrap;rounded=0;" vertex="1" parent="1">
          <mxGeometry x="570" y="790" width="60" height="30" as="geometry" />
        </mxCell>
        <mxCell id="CfoRzwzxVOL5DCLn1S8z-53" value="" style="shape=singleArrow;direction=north;whiteSpace=wrap;html=1;fillColor=#e51400;fontColor=#ffffff;strokeColor=#B20000;" vertex="1" parent="1">
          <mxGeometry x="-113" y="147.5" width="60" height="46" as="geometry" />
        </mxCell>
        <mxCell id="CfoRzwzxVOL5DCLn1S8z-54" value="" style="shape=singleArrow;direction=north;whiteSpace=wrap;html=1;fillColor=#f5f5f5;fontColor=#333333;strokeColor=#666666;" vertex="1" parent="1">
          <mxGeometry x="18" y="701" width="60" height="46" as="geometry" />
        </mxCell>
        <mxCell id="CfoRzwzxVOL5DCLn1S8z-56" value="" style="shape=singleArrow;direction=north;whiteSpace=wrap;html=1;fillColor=#f5f5f5;fontColor=#333333;strokeColor=#666666;" vertex="1" parent="1">
          <mxGeometry x="194" y="701" width="60" height="46" as="geometry" />
        </mxCell>
        <mxCell id="CfoRzwzxVOL5DCLn1S8z-57" value="" style="shape=singleArrow;direction=north;whiteSpace=wrap;html=1;fillColor=#f5f5f5;fontColor=#333333;strokeColor=#666666;" vertex="1" parent="1">
          <mxGeometry x="339" y="701" width="60" height="46" as="geometry" />
        </mxCell>
        <mxCell id="CfoRzwzxVOL5DCLn1S8z-58" value="" style="shape=singleArrow;direction=north;whiteSpace=wrap;html=1;fillColor=#f5f5f5;fontColor=#333333;strokeColor=#666666;" vertex="1" parent="1">
          <mxGeometry x="480" y="701" width="60" height="46" as="geometry" />
        </mxCell>
        <mxCell id="CfoRzwzxVOL5DCLn1S8z-59" value="" style="shape=singleArrow;direction=north;whiteSpace=wrap;html=1;fillColor=#f5f5f5;fontColor=#333333;strokeColor=#666666;" vertex="1" parent="1">
          <mxGeometry x="655.75" y="701" width="60" height="46" as="geometry" />
        </mxCell>
        <mxCell id="CfoRzwzxVOL5DCLn1S8z-60" value="" style="shape=singleArrow;direction=north;whiteSpace=wrap;html=1;fillColor=#f5f5f5;fontColor=#333333;strokeColor=#666666;" vertex="1" parent="1">
          <mxGeometry x="-121.5" y="701" width="60" height="46" as="geometry" />
        </mxCell>
        <mxCell id="CfoRzwzxVOL5DCLn1S8z-63" value="" style="rounded=1;whiteSpace=wrap;html=1;strokeWidth=2;fillColor=#ffe6cc;strokeColor=#000000;" vertex="1" parent="1">
          <mxGeometry x="-153" y="368" width="900" height="177" as="geometry" />
        </mxCell>
        <mxCell id="CfoRzwzxVOL5DCLn1S8z-64" value="&lt;font style=&quot;font-size: 40px;&quot;&gt;BERT&lt;/font&gt;" style="text;html=1;align=center;verticalAlign=middle;whiteSpace=wrap;rounded=0;" vertex="1" parent="1">
          <mxGeometry x="234" y="433" width="126" height="47" as="geometry" />
        </mxCell>
        <mxCell id="CfoRzwzxVOL5DCLn1S8z-66" value="" style="shape=singleArrow;direction=north;whiteSpace=wrap;html=1;fillColor=#e51400;fontColor=#ffffff;strokeColor=#B20000;" vertex="1" parent="1">
          <mxGeometry x="103" y="147.5" width="60" height="46" as="geometry" />
        </mxCell>
        <mxCell id="CfoRzwzxVOL5DCLn1S8z-67" value="" style="shape=singleArrow;direction=north;whiteSpace=wrap;html=1;fillColor=#e51400;fontColor=#ffffff;strokeColor=#B20000;" vertex="1" parent="1">
          <mxGeometry x="562" y="147.5" width="60" height="46" as="geometry" />
        </mxCell>
        <mxCell id="CfoRzwzxVOL5DCLn1S8z-68" value="&lt;font style=&quot;font-size: 36px;&quot;&gt;下一句预测&lt;/font&gt;" style="text;html=1;align=center;verticalAlign=middle;whiteSpace=wrap;rounded=0;" vertex="1" parent="1">
          <mxGeometry x="-170" y="77.5" width="203" height="70" as="geometry" />
        </mxCell>
        <mxCell id="CfoRzwzxVOL5DCLn1S8z-69" value="&lt;span style=&quot;font-size: 36px;&quot;&gt;掩码语言模型&lt;/span&gt;" style="text;html=1;align=center;verticalAlign=middle;whiteSpace=wrap;rounded=0;" vertex="1" parent="1">
          <mxGeometry x="33" y="77.5" width="238.5" height="70" as="geometry" />
        </mxCell>
        <mxCell id="CfoRzwzxVOL5DCLn1S8z-70" value="&lt;span style=&quot;font-size: 36px;&quot;&gt;掩码语言模型&lt;/span&gt;" style="text;html=1;align=center;verticalAlign=middle;whiteSpace=wrap;rounded=0;" vertex="1" parent="1">
          <mxGeometry x="472.75" y="77.5" width="238.5" height="70" as="geometry" />
        </mxCell>
        <mxCell id="CfoRzwzxVOL5DCLn1S8z-77" style="edgeStyle=orthogonalEdgeStyle;rounded=0;orthogonalLoop=1;jettySize=auto;html=1;exitX=0.5;exitY=0;exitDx=0;exitDy=0;strokeWidth=2;endArrow=none;startFill=0;" edge="1" parent="1" source="CfoRzwzxVOL5DCLn1S8z-72">
          <mxGeometry relative="1" as="geometry">
            <mxPoint x="133" y="896" as="targetPoint" />
            <Array as="points">
              <mxPoint x="133" y="929" />
              <mxPoint x="133" y="929" />
            </Array>
          </mxGeometry>
        </mxCell>
        <mxCell id="CfoRzwzxVOL5DCLn1S8z-72" value="&lt;span style=&quot;font-size: 36px;&quot;&gt;掩码后的句子A&lt;/span&gt;" style="text;html=1;align=center;verticalAlign=middle;whiteSpace=wrap;rounded=0;" vertex="1" parent="1">
          <mxGeometry x="-20" y="980" width="306" height="70" as="geometry" />
        </mxCell>
        <mxCell id="CfoRzwzxVOL5DCLn1S8z-80" style="edgeStyle=orthogonalEdgeStyle;rounded=0;orthogonalLoop=1;jettySize=auto;html=1;exitX=0.5;exitY=0;exitDx=0;exitDy=0;endArrow=none;startFill=0;strokeWidth=2;" edge="1" parent="1" source="CfoRzwzxVOL5DCLn1S8z-73">
          <mxGeometry relative="1" as="geometry">
            <mxPoint x="594.1428571428573" y="900.1428571428573" as="targetPoint" />
          </mxGeometry>
        </mxCell>
        <mxCell id="CfoRzwzxVOL5DCLn1S8z-73" value="&lt;span style=&quot;font-size: 36px;&quot;&gt;掩码后的句子B&lt;/span&gt;" style="text;html=1;align=center;verticalAlign=middle;whiteSpace=wrap;rounded=0;" vertex="1" parent="1">
          <mxGeometry x="441" y="980" width="306" height="70" as="geometry" />
        </mxCell>
        <mxCell id="CfoRzwzxVOL5DCLn1S8z-74" value="&lt;span style=&quot;font-size: 36px;&quot;&gt;未标注的句子对A和B&lt;/span&gt;" style="text;html=1;align=center;verticalAlign=middle;whiteSpace=wrap;rounded=0;" vertex="1" parent="1">
          <mxGeometry x="164.25" y="1136" width="402" height="70" as="geometry" />
        </mxCell>
        <mxCell id="CfoRzwzxVOL5DCLn1S8z-75" value="" style="shape=singleArrow;direction=north;whiteSpace=wrap;html=1;fillColor=#0050ef;fontColor=#ffffff;strokeColor=#001DBC;" vertex="1" parent="1">
          <mxGeometry x="335.25" y="1080" width="60" height="46" as="geometry" />
        </mxCell>
        <mxCell id="CfoRzwzxVOL5DCLn1S8z-78" style="edgeStyle=orthogonalEdgeStyle;rounded=0;orthogonalLoop=1;jettySize=auto;html=1;exitX=0.5;exitY=1;exitDx=0;exitDy=0;entryX=0.606;entryY=0.993;entryDx=0;entryDy=0;entryPerimeter=0;endArrow=none;startFill=0;strokeWidth=2;" edge="1" parent="1" source="CfoRzwzxVOL5DCLn1S8z-46" target="CfoRzwzxVOL5DCLn1S8z-48">
          <mxGeometry relative="1" as="geometry">
            <Array as="points">
              <mxPoint x="510" y="899" />
              <mxPoint x="691" y="899" />
            </Array>
          </mxGeometry>
        </mxCell>
        <mxCell id="CfoRzwzxVOL5DCLn1S8z-147" value="" style="rounded=1;whiteSpace=wrap;html=1;strokeWidth=2;fillColor=#eeeeee;strokeColor=#36393d;" vertex="1" parent="1">
          <mxGeometry x="1180" y="51" width="1038" height="1155" as="geometry" />
        </mxCell>
        <mxCell id="CfoRzwzxVOL5DCLn1S8z-148" value="" style="rounded=1;whiteSpace=wrap;html=1;fillColor=#dae8fc;strokeColor=default;strokeWidth=2;" vertex="1" parent="1">
          <mxGeometry x="1221" y="193.5" width="961" height="526" as="geometry" />
        </mxCell>
        <mxCell id="CfoRzwzxVOL5DCLn1S8z-203" value="&lt;span style=&quot;font-size: 36px;&quot;&gt;MNLI&lt;/span&gt;" style="text;html=1;align=center;verticalAlign=middle;whiteSpace=wrap;rounded=0;" vertex="1" parent="1">
          <mxGeometry x="1171" y="80" width="203" height="70" as="geometry" />
        </mxCell>
        <mxCell id="CfoRzwzxVOL5DCLn1S8z-280" value="" style="rounded=1;whiteSpace=wrap;html=1;strokeWidth=2;fillColor=#eeeeee;strokeColor=#36393d;" vertex="1" parent="1">
          <mxGeometry x="1312" y="51" width="1038" height="1155" as="geometry" />
        </mxCell>
        <mxCell id="CfoRzwzxVOL5DCLn1S8z-281" value="" style="rounded=1;whiteSpace=wrap;html=1;fillColor=#dae8fc;strokeColor=default;strokeWidth=2;" vertex="1" parent="1">
          <mxGeometry x="1353" y="193.5" width="961" height="526" as="geometry" />
        </mxCell>
        <mxCell id="CfoRzwzxVOL5DCLn1S8z-282" value="&lt;span style=&quot;font-size: 36px;&quot;&gt;NER&lt;/span&gt;" style="text;html=1;align=center;verticalAlign=middle;whiteSpace=wrap;rounded=0;" vertex="1" parent="1">
          <mxGeometry x="1303" y="80" width="203" height="70" as="geometry" />
        </mxCell>
        <mxCell id="CfoRzwzxVOL5DCLn1S8z-81" value="" style="rounded=1;whiteSpace=wrap;html=1;strokeWidth=2;fillColor=#eeeeee;strokeColor=#36393d;" vertex="1" parent="1">
          <mxGeometry x="1462" y="51" width="1038" height="1155" as="geometry" />
        </mxCell>
        <mxCell id="CfoRzwzxVOL5DCLn1S8z-82" value="" style="rounded=1;whiteSpace=wrap;html=1;fillColor=#dae8fc;strokeColor=default;strokeWidth=2;" vertex="1" parent="1">
          <mxGeometry x="1503" y="193.5" width="961" height="526" as="geometry" />
        </mxCell>
        <mxCell id="CfoRzwzxVOL5DCLn1S8z-83" value="" style="rounded=1;whiteSpace=wrap;html=1;fillColor=#d5e8d4;strokeColor=#000000;strokeWidth=2;" vertex="1" parent="1">
          <mxGeometry x="1538" y="238" width="120" height="60" as="geometry" />
        </mxCell>
        <mxCell id="CfoRzwzxVOL5DCLn1S8z-84" value="&lt;font style=&quot;font-size: 36px;&quot;&gt;C&lt;/font&gt;" style="text;html=1;align=center;verticalAlign=middle;whiteSpace=wrap;rounded=0;" vertex="1" parent="1">
          <mxGeometry x="1568" y="256" width="60" height="30" as="geometry" />
        </mxCell>
        <mxCell id="CfoRzwzxVOL5DCLn1S8z-85" value="" style="rounded=1;whiteSpace=wrap;html=1;fillColor=#d5e8d4;strokeColor=#000000;strokeWidth=2;" vertex="1" parent="1">
          <mxGeometry x="1679" y="241" width="120" height="60" as="geometry" />
        </mxCell>
        <mxCell id="CfoRzwzxVOL5DCLn1S8z-86" value="&lt;span style=&quot;font-size: 36px;&quot;&gt;T&lt;/span&gt;&lt;sub style=&quot;&quot;&gt;&lt;font style=&quot;font-size: 16px;&quot;&gt;1&lt;/font&gt;&lt;/sub&gt;" style="text;html=1;align=center;verticalAlign=middle;whiteSpace=wrap;rounded=0;" vertex="1" parent="1">
          <mxGeometry x="1709" y="259" width="60" height="30" as="geometry" />
        </mxCell>
        <mxCell id="CfoRzwzxVOL5DCLn1S8z-87" value="" style="rounded=1;whiteSpace=wrap;html=1;fillColor=#d5e8d4;strokeColor=#000000;strokeWidth=2;" vertex="1" parent="1">
          <mxGeometry x="1859" y="244" width="120" height="60" as="geometry" />
        </mxCell>
        <mxCell id="CfoRzwzxVOL5DCLn1S8z-88" value="&lt;span style=&quot;font-size: 36px;&quot;&gt;T&lt;/span&gt;&lt;span style=&quot;font-size: 16px;&quot;&gt;N&lt;/span&gt;" style="text;html=1;align=center;verticalAlign=middle;whiteSpace=wrap;rounded=0;" vertex="1" parent="1">
          <mxGeometry x="1889" y="262" width="60" height="30" as="geometry" />
        </mxCell>
        <mxCell id="CfoRzwzxVOL5DCLn1S8z-89" value="" style="rounded=1;whiteSpace=wrap;html=1;fillColor=#d5e8d4;strokeColor=#000000;strokeWidth=2;" vertex="1" parent="1">
          <mxGeometry x="2002" y="244" width="120" height="60" as="geometry" />
        </mxCell>
        <mxCell id="CfoRzwzxVOL5DCLn1S8z-90" value="&lt;span style=&quot;font-size: 36px;&quot;&gt;T&lt;/span&gt;&lt;span style=&quot;font-size: 16px;&quot;&gt;[SEP]&lt;/span&gt;" style="text;html=1;align=center;verticalAlign=middle;whiteSpace=wrap;rounded=0;" vertex="1" parent="1">
          <mxGeometry x="2032" y="262" width="60" height="30" as="geometry" />
        </mxCell>
        <mxCell id="CfoRzwzxVOL5DCLn1S8z-91" value="" style="rounded=1;whiteSpace=wrap;html=1;fillColor=#d5e8d4;strokeColor=#000000;strokeWidth=2;" vertex="1" parent="1">
          <mxGeometry x="2141" y="244" width="120" height="60" as="geometry" />
        </mxCell>
        <mxCell id="CfoRzwzxVOL5DCLn1S8z-92" value="&lt;span style=&quot;font-size: 36px;&quot;&gt;T&lt;/span&gt;&lt;sub style=&quot;&quot;&gt;&lt;font style=&quot;font-size: 16px;&quot;&gt;1&#39;&lt;/font&gt;&lt;/sub&gt;" style="text;html=1;align=center;verticalAlign=middle;whiteSpace=wrap;rounded=0;" vertex="1" parent="1">
          <mxGeometry x="2171" y="262" width="60" height="30" as="geometry" />
        </mxCell>
        <mxCell id="CfoRzwzxVOL5DCLn1S8z-93" value="" style="rounded=1;whiteSpace=wrap;html=1;fillColor=#d5e8d4;strokeColor=#000000;strokeWidth=2;" vertex="1" parent="1">
          <mxGeometry x="2321" y="244" width="120" height="60" as="geometry" />
        </mxCell>
        <mxCell id="CfoRzwzxVOL5DCLn1S8z-94" value="&lt;span style=&quot;font-size: 36px;&quot;&gt;T&lt;/span&gt;&lt;span style=&quot;font-size: 16px;&quot;&gt;M&#39;&lt;/span&gt;" style="text;html=1;align=center;verticalAlign=middle;whiteSpace=wrap;rounded=0;" vertex="1" parent="1">
          <mxGeometry x="2351" y="262" width="60" height="30" as="geometry" />
        </mxCell>
        <mxCell id="CfoRzwzxVOL5DCLn1S8z-95" value="&lt;font style=&quot;font-size: 24px;&quot;&gt;......&lt;/font&gt;" style="text;html=1;align=center;verticalAlign=middle;whiteSpace=wrap;rounded=0;" vertex="1" parent="1">
          <mxGeometry x="1799" y="259" width="60" height="30" as="geometry" />
        </mxCell>
        <mxCell id="CfoRzwzxVOL5DCLn1S8z-96" value="&lt;font style=&quot;font-size: 24px;&quot;&gt;......&lt;/font&gt;" style="text;html=1;align=center;verticalAlign=middle;whiteSpace=wrap;rounded=0;" vertex="1" parent="1">
          <mxGeometry x="2261" y="259" width="60" height="30" as="geometry" />
        </mxCell>
        <mxCell id="CfoRzwzxVOL5DCLn1S8z-97" value="" style="rounded=1;whiteSpace=wrap;html=1;fillColor=#FF9933;strokeColor=#000000;strokeWidth=2;" vertex="1" parent="1">
          <mxGeometry x="1538" y="607" width="120" height="60" as="geometry" />
        </mxCell>
        <mxCell id="CfoRzwzxVOL5DCLn1S8z-98" value="&lt;span style=&quot;font-size: 36px;&quot;&gt;E&lt;/span&gt;&lt;font style=&quot;font-size: 16px;&quot;&gt;[CLS]&lt;/font&gt;" style="text;html=1;align=center;verticalAlign=middle;whiteSpace=wrap;rounded=0;" vertex="1" parent="1">
          <mxGeometry x="1568" y="625" width="60" height="30" as="geometry" />
        </mxCell>
        <mxCell id="CfoRzwzxVOL5DCLn1S8z-99" value="" style="rounded=1;whiteSpace=wrap;html=1;fillColor=#FF9933;strokeColor=#000000;strokeWidth=2;" vertex="1" parent="1">
          <mxGeometry x="1679" y="610" width="120" height="60" as="geometry" />
        </mxCell>
        <mxCell id="CfoRzwzxVOL5DCLn1S8z-100" value="&lt;sub style=&quot;&quot;&gt;&lt;font style=&quot;font-size: 36px;&quot;&gt;E&lt;/font&gt;&lt;font style=&quot;font-size: 16px;&quot;&gt;1&lt;/font&gt;&lt;/sub&gt;" style="text;html=1;align=center;verticalAlign=middle;whiteSpace=wrap;rounded=0;" vertex="1" parent="1">
          <mxGeometry x="1709" y="628" width="60" height="30" as="geometry" />
        </mxCell>
        <mxCell id="CfoRzwzxVOL5DCLn1S8z-101" value="" style="rounded=1;whiteSpace=wrap;html=1;fillColor=#FF9933;strokeColor=#000000;strokeWidth=2;" vertex="1" parent="1">
          <mxGeometry x="1859" y="613" width="120" height="60" as="geometry" />
        </mxCell>
        <mxCell id="CfoRzwzxVOL5DCLn1S8z-102" value="&lt;span style=&quot;font-size: 36px;&quot;&gt;E&lt;/span&gt;&lt;span style=&quot;font-size: 16px;&quot;&gt;N&lt;/span&gt;" style="text;html=1;align=center;verticalAlign=middle;whiteSpace=wrap;rounded=0;" vertex="1" parent="1">
          <mxGeometry x="1889" y="631" width="60" height="30" as="geometry" />
        </mxCell>
        <mxCell id="CfoRzwzxVOL5DCLn1S8z-103" value="" style="rounded=1;whiteSpace=wrap;html=1;fillColor=#FF9933;strokeColor=#000000;strokeWidth=2;" vertex="1" parent="1">
          <mxGeometry x="2002" y="613" width="120" height="60" as="geometry" />
        </mxCell>
        <mxCell id="CfoRzwzxVOL5DCLn1S8z-104" value="&lt;span style=&quot;font-size: 36px;&quot;&gt;E&lt;/span&gt;&lt;span style=&quot;font-size: 16px;&quot;&gt;[SEP]&lt;/span&gt;" style="text;html=1;align=center;verticalAlign=middle;whiteSpace=wrap;rounded=0;" vertex="1" parent="1">
          <mxGeometry x="2032" y="631" width="60" height="30" as="geometry" />
        </mxCell>
        <mxCell id="CfoRzwzxVOL5DCLn1S8z-105" value="" style="rounded=1;whiteSpace=wrap;html=1;fillColor=#FF9933;strokeColor=#000000;strokeWidth=2;" vertex="1" parent="1">
          <mxGeometry x="2141" y="613" width="120" height="60" as="geometry" />
        </mxCell>
        <mxCell id="CfoRzwzxVOL5DCLn1S8z-106" value="&lt;sub style=&quot;&quot;&gt;&lt;font style=&quot;font-size: 36px;&quot;&gt;E&lt;/font&gt;&lt;font style=&quot;font-size: 16px;&quot;&gt;1&#39;&lt;/font&gt;&lt;/sub&gt;" style="text;html=1;align=center;verticalAlign=middle;whiteSpace=wrap;rounded=0;" vertex="1" parent="1">
          <mxGeometry x="2171" y="631" width="60" height="30" as="geometry" />
        </mxCell>
        <mxCell id="CfoRzwzxVOL5DCLn1S8z-107" value="" style="rounded=1;whiteSpace=wrap;html=1;fillColor=#FF9933;strokeColor=#000000;strokeWidth=2;" vertex="1" parent="1">
          <mxGeometry x="2321" y="613" width="120" height="60" as="geometry" />
        </mxCell>
        <mxCell id="CfoRzwzxVOL5DCLn1S8z-108" value="&lt;span style=&quot;font-size: 36px;&quot;&gt;E&lt;/span&gt;&lt;span style=&quot;font-size: 16px;&quot;&gt;M&#39;&lt;/span&gt;" style="text;html=1;align=center;verticalAlign=middle;whiteSpace=wrap;rounded=0;" vertex="1" parent="1">
          <mxGeometry x="2351" y="631" width="60" height="30" as="geometry" />
        </mxCell>
        <mxCell id="CfoRzwzxVOL5DCLn1S8z-109" value="&lt;font style=&quot;font-size: 24px;&quot;&gt;......&lt;/font&gt;" style="text;html=1;align=center;verticalAlign=middle;whiteSpace=wrap;rounded=0;" vertex="1" parent="1">
          <mxGeometry x="1799" y="628" width="60" height="30" as="geometry" />
        </mxCell>
        <mxCell id="CfoRzwzxVOL5DCLn1S8z-110" value="&lt;font style=&quot;font-size: 24px;&quot;&gt;......&lt;/font&gt;" style="text;html=1;align=center;verticalAlign=middle;whiteSpace=wrap;rounded=0;" vertex="1" parent="1">
          <mxGeometry x="2261" y="628" width="60" height="30" as="geometry" />
        </mxCell>
        <mxCell id="CfoRzwzxVOL5DCLn1S8z-111" value="" style="shape=loopLimit;whiteSpace=wrap;html=1;strokeWidth=2;fillColor=#f8cecc;strokeColor=#b85450;" vertex="1" parent="1">
          <mxGeometry x="1548" y="765" width="100" height="80" as="geometry" />
        </mxCell>
        <mxCell id="CfoRzwzxVOL5DCLn1S8z-112" value="&lt;font style=&quot;font-size: 24px;&quot;&gt;[CLS]&lt;/font&gt;" style="text;html=1;align=center;verticalAlign=middle;whiteSpace=wrap;rounded=0;" vertex="1" parent="1">
          <mxGeometry x="1569.5" y="795" width="60" height="30" as="geometry" />
        </mxCell>
        <mxCell id="CfoRzwzxVOL5DCLn1S8z-113" style="edgeStyle=orthogonalEdgeStyle;rounded=0;orthogonalLoop=1;jettySize=auto;html=1;exitX=0.5;exitY=1;exitDx=0;exitDy=0;entryX=0.5;entryY=1;entryDx=0;entryDy=0;strokeWidth=2;endArrow=none;startFill=0;" edge="1" parent="1" source="CfoRzwzxVOL5DCLn1S8z-114" target="CfoRzwzxVOL5DCLn1S8z-116">
          <mxGeometry relative="1" as="geometry">
            <Array as="points">
              <mxPoint x="1739" y="897" />
              <mxPoint x="1915" y="897" />
            </Array>
          </mxGeometry>
        </mxCell>
        <mxCell id="CfoRzwzxVOL5DCLn1S8z-114" value="" style="shape=loopLimit;whiteSpace=wrap;html=1;strokeWidth=2;fillColor=#f8cecc;strokeColor=#b85450;" vertex="1" parent="1">
          <mxGeometry x="1689" y="765" width="100" height="80" as="geometry" />
        </mxCell>
        <mxCell id="CfoRzwzxVOL5DCLn1S8z-115" value="&lt;span style=&quot;font-size: 24px;&quot;&gt;Tok 1&lt;/span&gt;" style="text;html=1;align=center;verticalAlign=middle;whiteSpace=wrap;rounded=0;" vertex="1" parent="1">
          <mxGeometry x="1710.5" y="795" width="60" height="30" as="geometry" />
        </mxCell>
        <mxCell id="CfoRzwzxVOL5DCLn1S8z-116" value="" style="shape=loopLimit;whiteSpace=wrap;html=1;strokeWidth=2;fillColor=#f8cecc;strokeColor=#b85450;" vertex="1" parent="1">
          <mxGeometry x="1865" y="765" width="100" height="80" as="geometry" />
        </mxCell>
        <mxCell id="CfoRzwzxVOL5DCLn1S8z-117" value="&lt;span style=&quot;font-size: 24px;&quot;&gt;Tok N&lt;/span&gt;" style="text;html=1;align=center;verticalAlign=middle;whiteSpace=wrap;rounded=0;" vertex="1" parent="1">
          <mxGeometry x="1879.25" y="795" width="71.5" height="30" as="geometry" />
        </mxCell>
        <mxCell id="CfoRzwzxVOL5DCLn1S8z-118" value="" style="shape=loopLimit;whiteSpace=wrap;html=1;strokeWidth=2;fillColor=#f8cecc;strokeColor=#b85450;" vertex="1" parent="1">
          <mxGeometry x="2012" y="765" width="100" height="80" as="geometry" />
        </mxCell>
        <mxCell id="CfoRzwzxVOL5DCLn1S8z-119" value="&lt;span style=&quot;font-size: 24px;&quot;&gt;[SEP]&lt;/span&gt;" style="text;html=1;align=center;verticalAlign=middle;whiteSpace=wrap;rounded=0;" vertex="1" parent="1">
          <mxGeometry x="2026.25" y="795" width="71.5" height="30" as="geometry" />
        </mxCell>
        <mxCell id="CfoRzwzxVOL5DCLn1S8z-120" value="" style="shape=loopLimit;whiteSpace=wrap;html=1;strokeWidth=2;fillColor=#f8cecc;strokeColor=#b85450;" vertex="1" parent="1">
          <mxGeometry x="2151" y="765" width="100" height="80" as="geometry" />
        </mxCell>
        <mxCell id="CfoRzwzxVOL5DCLn1S8z-121" value="&lt;span style=&quot;font-size: 24px;&quot;&gt;Tok 1&lt;/span&gt;" style="text;html=1;align=center;verticalAlign=middle;whiteSpace=wrap;rounded=0;" vertex="1" parent="1">
          <mxGeometry x="2165.25" y="795" width="71.5" height="30" as="geometry" />
        </mxCell>
        <mxCell id="CfoRzwzxVOL5DCLn1S8z-122" value="" style="shape=loopLimit;whiteSpace=wrap;html=1;strokeWidth=2;fillColor=#f8cecc;strokeColor=#b85450;" vertex="1" parent="1">
          <mxGeometry x="2321" y="765" width="100" height="80" as="geometry" />
        </mxCell>
        <mxCell id="CfoRzwzxVOL5DCLn1S8z-123" value="&lt;span style=&quot;font-size: 24px;&quot;&gt;Tok M&lt;/span&gt;" style="text;html=1;align=center;verticalAlign=middle;whiteSpace=wrap;rounded=0;" vertex="1" parent="1">
          <mxGeometry x="2335.25" y="795" width="71.5" height="30" as="geometry" />
        </mxCell>
        <mxCell id="CfoRzwzxVOL5DCLn1S8z-124" value="&lt;font style=&quot;font-size: 24px;&quot;&gt;......&lt;/font&gt;" style="text;html=1;align=center;verticalAlign=middle;whiteSpace=wrap;rounded=0;" vertex="1" parent="1">
          <mxGeometry x="1794" y="795" width="60" height="30" as="geometry" />
        </mxCell>
        <mxCell id="CfoRzwzxVOL5DCLn1S8z-125" value="&lt;font style=&quot;font-size: 24px;&quot;&gt;......&lt;/font&gt;" style="text;html=1;align=center;verticalAlign=middle;whiteSpace=wrap;rounded=0;" vertex="1" parent="1">
          <mxGeometry x="2261" y="790" width="60" height="30" as="geometry" />
        </mxCell>
        <mxCell id="CfoRzwzxVOL5DCLn1S8z-127" value="" style="shape=singleArrow;direction=north;whiteSpace=wrap;html=1;fillColor=#f5f5f5;fontColor=#333333;strokeColor=#666666;" vertex="1" parent="1">
          <mxGeometry x="1709" y="701" width="60" height="46" as="geometry" />
        </mxCell>
        <mxCell id="CfoRzwzxVOL5DCLn1S8z-128" value="" style="shape=singleArrow;direction=north;whiteSpace=wrap;html=1;fillColor=#f5f5f5;fontColor=#333333;strokeColor=#666666;" vertex="1" parent="1">
          <mxGeometry x="1885" y="701" width="60" height="46" as="geometry" />
        </mxCell>
        <mxCell id="CfoRzwzxVOL5DCLn1S8z-129" value="" style="shape=singleArrow;direction=north;whiteSpace=wrap;html=1;fillColor=#f5f5f5;fontColor=#333333;strokeColor=#666666;" vertex="1" parent="1">
          <mxGeometry x="2030" y="701" width="60" height="46" as="geometry" />
        </mxCell>
        <mxCell id="CfoRzwzxVOL5DCLn1S8z-130" value="" style="shape=singleArrow;direction=north;whiteSpace=wrap;html=1;fillColor=#f5f5f5;fontColor=#333333;strokeColor=#666666;" vertex="1" parent="1">
          <mxGeometry x="2171" y="701" width="60" height="46" as="geometry" />
        </mxCell>
        <mxCell id="CfoRzwzxVOL5DCLn1S8z-131" value="" style="shape=singleArrow;direction=north;whiteSpace=wrap;html=1;fillColor=#f5f5f5;fontColor=#333333;strokeColor=#666666;" vertex="1" parent="1">
          <mxGeometry x="2346.75" y="701" width="60" height="46" as="geometry" />
        </mxCell>
        <mxCell id="CfoRzwzxVOL5DCLn1S8z-132" value="" style="shape=singleArrow;direction=north;whiteSpace=wrap;html=1;fillColor=#f5f5f5;fontColor=#333333;strokeColor=#666666;" vertex="1" parent="1">
          <mxGeometry x="1569.5" y="701" width="60" height="46" as="geometry" />
        </mxCell>
        <mxCell id="CfoRzwzxVOL5DCLn1S8z-133" value="" style="rounded=1;whiteSpace=wrap;html=1;strokeWidth=2;fillColor=#ffe6cc;strokeColor=#000000;" vertex="1" parent="1">
          <mxGeometry x="1538" y="368" width="900" height="177" as="geometry" />
        </mxCell>
        <mxCell id="CfoRzwzxVOL5DCLn1S8z-134" value="&lt;font style=&quot;font-size: 40px;&quot;&gt;BERT&lt;/font&gt;" style="text;html=1;align=center;verticalAlign=middle;whiteSpace=wrap;rounded=0;" vertex="1" parent="1">
          <mxGeometry x="1925" y="433" width="126" height="47" as="geometry" />
        </mxCell>
        <mxCell id="CfoRzwzxVOL5DCLn1S8z-136" value="" style="shape=singleArrow;direction=north;whiteSpace=wrap;html=1;fillColor=#e51400;fontColor=#ffffff;strokeColor=#B20000;" vertex="1" parent="1">
          <mxGeometry x="2253" y="147.5" width="60" height="46" as="geometry" />
        </mxCell>
        <mxCell id="CfoRzwzxVOL5DCLn1S8z-137" value="&lt;span style=&quot;font-size: 36px;&quot;&gt;SQuAD&lt;/span&gt;" style="text;html=1;align=center;verticalAlign=middle;whiteSpace=wrap;rounded=0;" vertex="1" parent="1">
          <mxGeometry x="1471" y="80" width="203" height="70" as="geometry" />
        </mxCell>
        <mxCell id="CfoRzwzxVOL5DCLn1S8z-138" value="&lt;span style=&quot;font-size: 36px;&quot;&gt;开始/结束&lt;/span&gt;" style="text;html=1;align=center;verticalAlign=middle;whiteSpace=wrap;rounded=0;" vertex="1" parent="1">
          <mxGeometry x="2112.5" y="80" width="238.5" height="70" as="geometry" />
        </mxCell>
        <mxCell id="CfoRzwzxVOL5DCLn1S8z-139" value="&lt;span style=&quot;font-size: 36px;&quot;&gt;区间&lt;/span&gt;" style="text;html=1;align=center;verticalAlign=middle;whiteSpace=wrap;rounded=0;" vertex="1" parent="1">
          <mxGeometry x="2248" y="80" width="238.5" height="70" as="geometry" />
        </mxCell>
        <mxCell id="CfoRzwzxVOL5DCLn1S8z-140" style="edgeStyle=orthogonalEdgeStyle;rounded=0;orthogonalLoop=1;jettySize=auto;html=1;exitX=0.5;exitY=0;exitDx=0;exitDy=0;strokeWidth=2;endArrow=none;startFill=0;" edge="1" parent="1" source="CfoRzwzxVOL5DCLn1S8z-141">
          <mxGeometry relative="1" as="geometry">
            <mxPoint x="1824" y="896" as="targetPoint" />
            <Array as="points">
              <mxPoint x="1824" y="929" />
              <mxPoint x="1824" y="929" />
            </Array>
          </mxGeometry>
        </mxCell>
        <mxCell id="CfoRzwzxVOL5DCLn1S8z-141" value="&lt;span style=&quot;font-size: 36px;&quot;&gt;问题&lt;/span&gt;" style="text;html=1;align=center;verticalAlign=middle;whiteSpace=wrap;rounded=0;" vertex="1" parent="1">
          <mxGeometry x="1671" y="980" width="306" height="70" as="geometry" />
        </mxCell>
        <mxCell id="CfoRzwzxVOL5DCLn1S8z-142" style="edgeStyle=orthogonalEdgeStyle;rounded=0;orthogonalLoop=1;jettySize=auto;html=1;exitX=0.5;exitY=0;exitDx=0;exitDy=0;endArrow=none;startFill=0;strokeWidth=2;" edge="1" parent="1" source="CfoRzwzxVOL5DCLn1S8z-143">
          <mxGeometry relative="1" as="geometry">
            <mxPoint x="2285.1428571428573" y="900.1428571428573" as="targetPoint" />
          </mxGeometry>
        </mxCell>
        <mxCell id="CfoRzwzxVOL5DCLn1S8z-143" value="&lt;span style=&quot;font-size: 36px;&quot;&gt;段落&lt;/span&gt;" style="text;html=1;align=center;verticalAlign=middle;whiteSpace=wrap;rounded=0;" vertex="1" parent="1">
          <mxGeometry x="2132" y="980" width="306" height="70" as="geometry" />
        </mxCell>
        <mxCell id="CfoRzwzxVOL5DCLn1S8z-144" value="&lt;span style=&quot;font-size: 36px;&quot;&gt;问答对&lt;/span&gt;" style="text;html=1;align=center;verticalAlign=middle;whiteSpace=wrap;rounded=0;" vertex="1" parent="1">
          <mxGeometry x="1855.25" y="1136" width="402" height="70" as="geometry" />
        </mxCell>
        <mxCell id="CfoRzwzxVOL5DCLn1S8z-145" value="" style="shape=singleArrow;direction=north;whiteSpace=wrap;html=1;fillColor=#0050ef;fontColor=#ffffff;strokeColor=#001DBC;" vertex="1" parent="1">
          <mxGeometry x="2026.25" y="1080" width="60" height="46" as="geometry" />
        </mxCell>
        <mxCell id="CfoRzwzxVOL5DCLn1S8z-146" style="edgeStyle=orthogonalEdgeStyle;rounded=0;orthogonalLoop=1;jettySize=auto;html=1;exitX=0.5;exitY=1;exitDx=0;exitDy=0;entryX=0.606;entryY=0.993;entryDx=0;entryDy=0;entryPerimeter=0;endArrow=none;startFill=0;strokeWidth=2;" edge="1" parent="1" source="CfoRzwzxVOL5DCLn1S8z-120" target="CfoRzwzxVOL5DCLn1S8z-122">
          <mxGeometry relative="1" as="geometry">
            <Array as="points">
              <mxPoint x="2201" y="899" />
              <mxPoint x="2382" y="899" />
            </Array>
          </mxGeometry>
        </mxCell>
        <mxCell id="CfoRzwzxVOL5DCLn1S8z-287" value="" style="shape=singleArrow;direction=north;whiteSpace=wrap;html=1;fillColor=#e51400;fontColor=#ffffff;strokeColor=#B20000;" vertex="1" parent="1">
          <mxGeometry x="2342.25" y="147.5" width="60" height="46" as="geometry" />
        </mxCell>
        <mxCell id="CfoRzwzxVOL5DCLn1S8z-288" value="" style="shape=singleArrow;direction=north;whiteSpace=wrap;html=1;fillColor=#e51400;fontColor=#ffffff;strokeColor=#B20000;" vertex="1" parent="1">
          <mxGeometry x="2176.75" y="150" width="60" height="46" as="geometry" />
        </mxCell>
        <mxCell id="CfoRzwzxVOL5DCLn1S8z-291" value="" style="endArrow=classic;html=1;rounded=0;strokeWidth=10;endFill=1;dashed=1;strokeColor=#CCCCCC;" edge="1" parent="1">
          <mxGeometry width="50" height="50" relative="1" as="geometry">
            <mxPoint x="778" y="412" as="sourcePoint" />
            <mxPoint x="1214" y="412" as="targetPoint" />
          </mxGeometry>
        </mxCell>
        <mxCell id="CfoRzwzxVOL5DCLn1S8z-293" value="" style="endArrow=classic;html=1;rounded=0;exitX=1;exitY=0.5;exitDx=0;exitDy=0;entryX=0;entryY=0.5;entryDx=0;entryDy=0;strokeWidth=10;endFill=1;dashed=1;strokeColor=#CCCCCC;" edge="1" parent="1" source="CfoRzwzxVOL5DCLn1S8z-65" target="CfoRzwzxVOL5DCLn1S8z-281">
          <mxGeometry width="50" height="50" relative="1" as="geometry">
            <mxPoint x="1084" y="780" as="sourcePoint" />
            <mxPoint x="1134" y="730" as="targetPoint" />
          </mxGeometry>
        </mxCell>
        <mxCell id="CfoRzwzxVOL5DCLn1S8z-294" value="" style="endArrow=classic;html=1;rounded=0;exitX=0.998;exitY=0.564;exitDx=0;exitDy=0;exitPerimeter=0;strokeWidth=10;endFill=1;dashed=1;strokeColor=#CCCCCC;" edge="1" parent="1" source="CfoRzwzxVOL5DCLn1S8z-65">
          <mxGeometry width="50" height="50" relative="1" as="geometry">
            <mxPoint x="1084" y="780" as="sourcePoint" />
            <mxPoint x="1502" y="490" as="targetPoint" />
          </mxGeometry>
        </mxCell>
        <mxCell id="CfoRzwzxVOL5DCLn1S8z-303" value="" style="shape=singleArrow;direction=north;whiteSpace=wrap;html=1;fillColor=#6a00ff;strokeColor=#3700CC;fontColor=#ffffff;" vertex="1" parent="1">
          <mxGeometry x="-116" y="561" width="60" height="46" as="geometry" />
        </mxCell>
        <mxCell id="CfoRzwzxVOL5DCLn1S8z-306" value="" style="shape=singleArrow;direction=north;whiteSpace=wrap;html=1;fillColor=#6a00ff;strokeColor=#3700CC;fontColor=#ffffff;" vertex="1" parent="1">
          <mxGeometry x="19.5" y="564" width="60" height="46" as="geometry" />
        </mxCell>
        <mxCell id="CfoRzwzxVOL5DCLn1S8z-317" value="" style="shape=singleArrow;direction=north;whiteSpace=wrap;html=1;fillColor=#6a00ff;strokeColor=#3700CC;fontColor=#ffffff;" vertex="1" parent="1">
          <mxGeometry x="198" y="566" width="60" height="46" as="geometry" />
        </mxCell>
        <mxCell id="CfoRzwzxVOL5DCLn1S8z-318" value="" style="shape=singleArrow;direction=north;whiteSpace=wrap;html=1;fillColor=#6a00ff;strokeColor=#3700CC;fontColor=#ffffff;" vertex="1" parent="1">
          <mxGeometry x="339" y="566" width="60" height="46" as="geometry" />
        </mxCell>
        <mxCell id="CfoRzwzxVOL5DCLn1S8z-319" value="" style="shape=singleArrow;direction=north;whiteSpace=wrap;html=1;fillColor=#6a00ff;strokeColor=#3700CC;fontColor=#ffffff;" vertex="1" parent="1">
          <mxGeometry x="480" y="566" width="60" height="46" as="geometry" />
        </mxCell>
        <mxCell id="CfoRzwzxVOL5DCLn1S8z-320" value="" style="shape=singleArrow;direction=north;whiteSpace=wrap;html=1;fillColor=#6a00ff;strokeColor=#3700CC;fontColor=#ffffff;" vertex="1" parent="1">
          <mxGeometry x="655.75" y="565" width="60" height="46" as="geometry" />
        </mxCell>
        <mxCell id="CfoRzwzxVOL5DCLn1S8z-324" value="" style="shape=singleArrow;direction=north;whiteSpace=wrap;html=1;fillColor=#6a00ff;strokeColor=#3700CC;fontColor=#ffffff;" vertex="1" parent="1">
          <mxGeometry x="-121.5" y="321" width="60" height="46" as="geometry" />
        </mxCell>
        <mxCell id="CfoRzwzxVOL5DCLn1S8z-325" value="" style="shape=singleArrow;direction=north;whiteSpace=wrap;html=1;fillColor=#6a00ff;strokeColor=#3700CC;fontColor=#ffffff;" vertex="1" parent="1">
          <mxGeometry x="19.5" y="320" width="60" height="46" as="geometry" />
        </mxCell>
        <mxCell id="CfoRzwzxVOL5DCLn1S8z-326" value="" style="shape=singleArrow;direction=north;whiteSpace=wrap;html=1;fillColor=#6a00ff;strokeColor=#3700CC;fontColor=#ffffff;" vertex="1" parent="1">
          <mxGeometry x="198" y="321" width="60" height="46" as="geometry" />
        </mxCell>
        <mxCell id="CfoRzwzxVOL5DCLn1S8z-327" value="" style="shape=singleArrow;direction=north;whiteSpace=wrap;html=1;fillColor=#6a00ff;strokeColor=#3700CC;fontColor=#ffffff;" vertex="1" parent="1">
          <mxGeometry x="343" y="322" width="60" height="46" as="geometry" />
        </mxCell>
        <mxCell id="CfoRzwzxVOL5DCLn1S8z-328" value="" style="shape=singleArrow;direction=north;whiteSpace=wrap;html=1;fillColor=#6a00ff;strokeColor=#3700CC;fontColor=#ffffff;" vertex="1" parent="1">
          <mxGeometry x="480" y="321" width="60" height="46" as="geometry" />
        </mxCell>
        <mxCell id="CfoRzwzxVOL5DCLn1S8z-329" value="" style="shape=singleArrow;direction=north;whiteSpace=wrap;html=1;fillColor=#6a00ff;strokeColor=#3700CC;fontColor=#ffffff;" vertex="1" parent="1">
          <mxGeometry x="655.75" y="320" width="60" height="46" as="geometry" />
        </mxCell>
        <mxCell id="CfoRzwzxVOL5DCLn1S8z-331" value="" style="shape=singleArrow;direction=north;whiteSpace=wrap;html=1;fillColor=#6a00ff;strokeColor=#3700CC;fontColor=#ffffff;" vertex="1" parent="1">
          <mxGeometry x="1569.5" y="559" width="60" height="46" as="geometry" />
        </mxCell>
        <mxCell id="CfoRzwzxVOL5DCLn1S8z-334" value="" style="shape=singleArrow;direction=north;whiteSpace=wrap;html=1;fillColor=#6a00ff;strokeColor=#3700CC;fontColor=#ffffff;" vertex="1" parent="1">
          <mxGeometry x="1707" y="563" width="60" height="46" as="geometry" />
        </mxCell>
        <mxCell id="CfoRzwzxVOL5DCLn1S8z-335" value="" style="shape=singleArrow;direction=north;whiteSpace=wrap;html=1;fillColor=#6a00ff;strokeColor=#3700CC;fontColor=#ffffff;" vertex="1" parent="1">
          <mxGeometry x="1885" y="568" width="60" height="46" as="geometry" />
        </mxCell>
        <mxCell id="CfoRzwzxVOL5DCLn1S8z-336" value="" style="shape=singleArrow;direction=north;whiteSpace=wrap;html=1;fillColor=#6a00ff;strokeColor=#3700CC;fontColor=#ffffff;" vertex="1" parent="1">
          <mxGeometry x="2030" y="567" width="60" height="46" as="geometry" />
        </mxCell>
        <mxCell id="CfoRzwzxVOL5DCLn1S8z-337" value="" style="shape=singleArrow;direction=north;whiteSpace=wrap;html=1;fillColor=#6a00ff;strokeColor=#3700CC;fontColor=#ffffff;" vertex="1" parent="1">
          <mxGeometry x="2176.75" y="567" width="60" height="46" as="geometry" />
        </mxCell>
        <mxCell id="CfoRzwzxVOL5DCLn1S8z-338" value="" style="shape=singleArrow;direction=north;whiteSpace=wrap;html=1;fillColor=#6a00ff;strokeColor=#3700CC;fontColor=#ffffff;" vertex="1" parent="1">
          <mxGeometry x="2346.75" y="567" width="60" height="46" as="geometry" />
        </mxCell>
        <mxCell id="CfoRzwzxVOL5DCLn1S8z-339" value="" style="shape=singleArrow;direction=north;whiteSpace=wrap;html=1;fillColor=#6a00ff;strokeColor=#3700CC;fontColor=#ffffff;" vertex="1" parent="1">
          <mxGeometry x="1569.5" y="321" width="60" height="46" as="geometry" />
        </mxCell>
        <mxCell id="CfoRzwzxVOL5DCLn1S8z-340" value="" style="shape=singleArrow;direction=north;whiteSpace=wrap;html=1;fillColor=#6a00ff;strokeColor=#3700CC;fontColor=#ffffff;" vertex="1" parent="1">
          <mxGeometry x="1710.5" y="321" width="60" height="46" as="geometry" />
        </mxCell>
        <mxCell id="CfoRzwzxVOL5DCLn1S8z-341" value="" style="shape=singleArrow;direction=north;whiteSpace=wrap;html=1;fillColor=#6a00ff;strokeColor=#3700CC;fontColor=#ffffff;" vertex="1" parent="1">
          <mxGeometry x="1885" y="320" width="60" height="46" as="geometry" />
        </mxCell>
        <mxCell id="CfoRzwzxVOL5DCLn1S8z-342" value="" style="shape=singleArrow;direction=north;whiteSpace=wrap;html=1;fillColor=#6a00ff;strokeColor=#3700CC;fontColor=#ffffff;" vertex="1" parent="1">
          <mxGeometry x="2026.25" y="321" width="60" height="46" as="geometry" />
        </mxCell>
        <mxCell id="CfoRzwzxVOL5DCLn1S8z-343" value="" style="shape=singleArrow;direction=north;whiteSpace=wrap;html=1;fillColor=#6a00ff;strokeColor=#3700CC;fontColor=#ffffff;" vertex="1" parent="1">
          <mxGeometry x="2176.75" y="320" width="60" height="46" as="geometry" />
        </mxCell>
        <mxCell id="CfoRzwzxVOL5DCLn1S8z-344" value="" style="shape=singleArrow;direction=north;whiteSpace=wrap;html=1;fillColor=#6a00ff;strokeColor=#3700CC;fontColor=#ffffff;" vertex="1" parent="1">
          <mxGeometry x="2346.75" y="321" width="60" height="46" as="geometry" />
        </mxCell>
        <mxCell id="CfoRzwzxVOL5DCLn1S8z-345" value="&lt;font style=&quot;font-size: 50px;&quot;&gt;&lt;b style=&quot;&quot;&gt;预训练&lt;/b&gt;&lt;/font&gt;" style="text;html=1;align=center;verticalAlign=middle;whiteSpace=wrap;rounded=0;" vertex="1" parent="1">
          <mxGeometry x="67" y="1206" width="460" height="158" as="geometry" />
        </mxCell>
        <mxCell id="CfoRzwzxVOL5DCLn1S8z-346" value="&lt;span style=&quot;font-size: 50px;&quot;&gt;&lt;b&gt;微调&lt;/b&gt;&lt;/span&gt;" style="text;html=1;align=center;verticalAlign=middle;whiteSpace=wrap;rounded=0;" vertex="1" parent="1">
          <mxGeometry x="1753.5" y="1209" width="460" height="158" as="geometry" />
        </mxCell>
      </root>
    </mxGraphModel>
  </diagram>
</mxfile>
